<svg xmlns="http://www.w3.org/2000/svg" viewBox="0 0 70.53 70.53"><defs><style>.cls-1{fill:#e6e7e8;}.cls-2{fill:#9f2062;}.cls-3{fill:#b72370;}.cls-4{fill:#fdee19;}.cls-5{fill:#f9a620;}.cls-6{fill:#f05a27;}.cls-7{fill:#bcd335;}.cls-8{fill:#8ac544;}.cls-9{fill:#71bf46;}.cls-10{fill:#39b34b;}.cls-11{fill:#66c8cd;}.cls-12{fill:#2288c9;}.cls-13{fill:#61c29c;}.cls-14{fill:#1c61ac;}.cls-15{fill:#9765a9;}.cls-16{fill:#912b8c;}.cls-17{fill:#0f9a4a;}.cls-18{fill:#02b4ac;}</style></defs><title>Asset 4</title><g id="Layer_2" data-name="Layer 2"><g id="Layer_1-2" data-name="Layer 1"><circle class="cls-1" cx="35.27" cy="35.27" r="35.27"/><polygon class="cls-2" points="43.11 25.28 32.11 25.24 37.59 30.92 43.11 25.28"/><polygon class="cls-3" points="37.59 30.92 32.11 25.24 32.08 36.55 37.59 30.92"/><polygon class="cls-4" points="54.14 14.01 43.15 13.97 48.63 19.64 54.14 14.01"/><polygon class="cls-5" points="48.63 19.64 43.15 13.97 43.11 25.28 48.63 19.64"/><polygon class="cls-6" points="37.63 19.61 43.11 25.28 43.15 13.97 37.63 19.61"/><polygon class="cls-3" points="32.11 25.24 43.11 25.28 37.63 19.61 32.11 25.24"/><polygon class="cls-7" points="37.71 41.79 43.39 47.27 32.08 47.31 37.71 41.79"/><polygon class="cls-8" points="43.39 47.27 43.43 58.26 37.75 52.78 43.39 47.27"/><polygon class="cls-9" points="37.75 52.78 32.08 47.31 43.39 47.27 37.75 52.78"/><polygon class="cls-10" points="43.43 58.26 43.39 47.27 49.06 52.75 43.43 58.26"/><polygon class="cls-8" points="49.06 52.75 54.74 58.23 43.43 58.26 49.06 52.75"/><polygon class="cls-10" points="32.13 47.29 32.1 36.29 37.77 41.77 32.13 47.29"/><polygon class="cls-8" points="37.77 41.77 43.45 47.25 32.13 47.29 37.77 41.77"/><polygon class="cls-11" points="20.82 36.16 20.78 47.15 26.46 41.68 20.82 36.16"/><polygon class="cls-12" points="26.46 41.68 32.13 36.2 20.82 36.16 26.46 41.68"/><polygon class="cls-9" points="32.1 47.19 32.13 36.2 26.46 41.68 32.1 47.19"/><polygon class="cls-13" points="26.46 41.68 20.78 47.15 32.1 47.19 26.46 41.68"/><polygon class="cls-2" points="32.13 36.2 32.17 25.2 26.5 30.68 32.13 36.2"/><polygon class="cls-14" points="26.5 30.68 20.82 36.16 32.13 36.2 26.5 30.68"/><polygon class="cls-15" points="20.86 25.16 20.82 36.16 26.5 30.68 20.86 25.16"/><polygon class="cls-16" points="26.5 30.68 32.17 25.2 20.86 25.16 26.5 30.68"/><polygon class="cls-3" points="26.54 19.69 20.86 25.16 32.17 25.2 26.54 19.69"/><polygon class="cls-2" points="20.9 14.17 20.86 25.16 26.54 19.69 20.9 14.17"/><polygon class="cls-17" points="32.06 58.19 32.1 47.19 26.42 52.67 32.06 58.19"/><polygon class="cls-18" points="26.42 52.67 32.1 47.19 20.78 47.15 26.42 52.67"/></g></g></svg>